<svg xmlns="http://www.w3.org/2000/svg" viewBox="0 0 1024 1024" width="1024" height="1024" role="img" aria-label="Electric plug letter E logo">
  <defs>
    <radialGradient id="bg" cx="50%" cy="48%" r="65%">
      <stop offset="0%" stop-color="#131313"/>
      <stop offset="65%" stop-color="#080808"/>
      <stop offset="100%" stop-color="#000000"/>
    </radialGradient>
    <linearGradient id="gold" x1="0%" y1="0%" x2="100%" y2="100%">
      <stop offset="0%" stop-color="#fff36a"/>
      <stop offset="18%" stop-color="#ffe11f"/>
      <stop offset="55%" stop-color="#ffc400"/>
      <stop offset="100%" stop-color="#df8600"/>
    </linearGradient>
    <linearGradient id="goldStroke" x1="0%" y1="0%" x2="100%" y2="0%">
      <stop offset="0%" stop-color="#fff89a"/>
      <stop offset="35%" stop-color="#fff04a"/>
      <stop offset="100%" stop-color="#ffb600"/>
    </linearGradient>
    <linearGradient id="pin" x1="0%" y1="0%" x2="100%" y2="0%">
      <stop offset="0%" stop-color="#f7f7f7"/>
      <stop offset="60%" stop-color="#ececec"/>
      <stop offset="100%" stop-color="#d9d9d9"/>
    </linearGradient>
    <filter id="softGlow" x="-25%" y="-25%" width="150%" height="150%">
      <feGaussianBlur stdDeviation="8" result="blur"/>
      <feColorMatrix in="blur" type="matrix"
        values="1 0 0 0 0
                0 0.85 0 0 0
                0 0 0.1 0 0
                0 0 0 0.7 0" result="glow"/>
      <feMerge>
        <feMergeNode in="glow"/>
        <feMergeNode in="SourceGraphic"/>
      </feMerge>
    </filter>
    <filter id="innerSoft" x="-20%" y="-20%" width="140%" height="140%">
      <feGaussianBlur in="SourceAlpha" stdDeviation="4" result="alpha"/>
      <feOffset dx="0" dy="1" result="off"/>
      <feComposite in="off" in2="SourceAlpha" operator="arithmetic" k2="-1" k3="1" result="inner"/>
      <feColorMatrix in="inner" type="matrix"
        values="0 0 0 0 1
                0 0 0 0 0.95
                0 0 0 0 0.45
                0 0 0 0.32 0"/>
      <feBlend in="SourceGraphic" mode="screen"/>
    </filter>
  </defs>

  <rect width="1024" height="1024" fill="url(#bg)"/>

  <g filter="url(#softGlow)" stroke-linejoin="round" stroke-linecap="round">
    <!-- top E bar -->
    <path d="M410 255H818V330H590V404H528V329H410Z"
          fill="url(#gold)" stroke="url(#goldStroke)" stroke-width="8"/>

    <!-- middle E bar -->
    <path d="M525 505H782V580H525Z"
          fill="url(#gold)" stroke="url(#goldStroke)" stroke-width="8"/>

    <!-- bottom E bar -->
    <path d="M410 743H528V676H590V751H818V826H410Z"
          fill="url(#gold)" stroke="url(#goldStroke)" stroke-width="8"/>

    <!-- plug prongs -->
    <rect x="458" y="434" width="191" height="47" rx="24" fill="url(#pin)"/>
    <rect x="458" y="604" width="191" height="47" rx="24" fill="url(#pin)"/>

    <!-- plug body -->
    <path d="M226 454V609L322 705H497V353H322L226 454Z"
          fill="url(#gold)" stroke="url(#goldStroke)" stroke-width="8"/>
    <!-- angled right edge shading overlay -->
    <path d="M319 699L490 699L490 361L319 361L240 454V606Z"
          fill="none" filter="url(#innerSoft)"/>

    <!-- cable stem -->
    <rect x="143" y="519" width="111" height="58" rx="0" fill="url(#gold)" stroke="url(#goldStroke)" stroke-width="8"/>
  </g>
</svg>
